<?xml version="1.0" standalone="no"?>
<!DOCTYPE svg PUBLIC "-//W3C//DTD SVG 20010904//EN"
 "http://www.w3.org/TR/2001/REC-SVG-20010904/DTD/svg10.dtd">
<svg version="1.0" xmlns="http://www.w3.org/2000/svg"
 width="512.000000pt" height="512.000000pt" viewBox="0 0 512.000000 512.000000"
 preserveAspectRatio="xMidYMid meet">

<g transform="translate(0.000000,512.000000) scale(0.100000,-0.100000)"
fill="#000000" stroke="none">
<path d="M4690 4821 c-14 -4 -41 -16 -60 -25 -19 -10 -514 -496 -1100 -1081
l-1065 -1062 -57 -11 c-87 -17 -155 -57 -246 -146 l-83 -81 -97 3 c-157 6
-199 -13 -552 -242 -230 -150 -378 -227 -499 -262 -88 -25 -102 -26 -240 -21
-171 6 -287 32 -432 96 -105 47 -154 52 -205 20 -50 -30 -62 -79 -40 -166 50
-204 176 -353 387 -457 l107 -53 -62 -45 c-71 -51 -106 -109 -106 -176 0 -49
37 -98 104 -137 52 -31 200 -79 291 -94 103 -18 100 -14 65 -73 -47 -79 -61
-116 -62 -159 -1 -52 24 -87 80 -112 45 -20 54 -20 217 -9 152 10 213 20 344
58 22 6 23 5 17 -17 -18 -63 -29 -180 -21 -205 16 -44 58 -68 128 -72 53 -3
80 3 195 42 158 55 218 84 339 165 336 225 568 597 683 1098 16 70 30 154 30
187 0 58 1 59 59 121 66 71 108 151 117 222 l6 48 1068 1070 c1197 1200 1114
1107 1115 1260 0 95 -28 165 -92 231 -63 64 -122 89 -223 91 -47 1 -96 -1
-110 -6z m168 -258 c18 -25 25 -59 18 -85 -3 -13 -457 -474 -1009 -1026
l-1003 -1003 -65 65 -65 65 1001 1000 c550 550 1011 1004 1025 1009 31 11 80
-2 98 -25z m-2305 -2166 c141 -60 185 -231 83 -326 l-25 -24 -78 73 c-43 40
-110 98 -150 129 l-72 56 37 39 c61 64 133 82 205 53z m-458 -251 c40 -19 95
-49 121 -67 70 -48 270 -245 284 -279 11 -26 8 -48 -14 -150 -110 -493 -361
-855 -709 -1024 -51 -25 -101 -47 -113 -51 l-21 -5 23 102 c13 57 24 116 24
131 0 64 -54 117 -120 117 -17 0 -65 -17 -108 -39 -129 -64 -319 -119 -381
-109 -20 3 -18 8 29 88 63 107 66 144 15 188 -38 34 -55 38 -190 47 -85 6
-213 27 -255 43 -16 6 -6 17 62 61 45 30 104 76 131 102 49 47 50 49 45 99 -9
87 -46 110 -237 146 -47 9 -110 25 -138 36 -54 20 -178 97 -169 105 2 3 42 -4
88 -14 64 -14 125 -18 268 -17 172 0 191 2 275 27 132 40 312 135 555 292 286
185 325 205 401 205 47 0 76 -7 134 -34z"/>
</g>
</svg>
